<svg xmlns="http://www.w3.org/2000/svg" width="1500" height="600" viewBox="0 0 1500 600" preserveAspectRatio="xMidYMid slice">
<defs>
<radialGradient id="g0" cx="22%" cy="30%" r="54%"><stop offset="0%" stop-color="#F43F5E" stop-opacity="1.0"/><stop offset="68%" stop-color="#F43F5E" stop-opacity="0"/></radialGradient>
<radialGradient id="g1" cx="70%" cy="30%" r="50%"><stop offset="0%" stop-color="#F97316" stop-opacity="1.0"/><stop offset="68%" stop-color="#F97316" stop-opacity="0"/></radialGradient>
<radialGradient id="g2" cx="28%" cy="96%" r="38%"><stop offset="0%" stop-color="#FB7185" stop-opacity="0.5"/><stop offset="68%" stop-color="#FB7185" stop-opacity="0"/></radialGradient>
<radialGradient id="g3" cx="94%" cy="82%" r="36%"><stop offset="0%" stop-color="#E11D48" stop-opacity="0.65"/><stop offset="68%" stop-color="#E11D48" stop-opacity="0"/></radialGradient>
<radialGradient id="vig" cx="50%" cy="45%" r="78%">
<stop offset="40%" stop-color="#000" stop-opacity="0"/>
<stop offset="100%" stop-color="#000" stop-opacity="0.38"/>
</radialGradient>
<pattern id="grid" width="60" height="60" patternUnits="userSpaceOnUse">
<path d="M60 0H0V60" fill="none" stroke="#fff" stroke-opacity="0.038" stroke-width="1"/>
</pattern>
<filter id="grain" x="0" y="0" width="100%" height="100%">
<feTurbulence type="fractalNoise" baseFrequency="0.62" numOctaves="2"/>
<feColorMatrix type="saturate" values="0"/>
</filter>
<filter id="soft" x="-60%" y="-60%" width="220%" height="220%">
<feGaussianBlur stdDeviation="14"/>
</filter>
</defs>
<rect width="1500" height="600" fill="#0B1226"/>
<g style="mix-blend-mode:screen">
<rect width="1500" height="600" fill="url(#g0)"/>
<rect width="1500" height="600" fill="url(#g1)"/>
<rect width="1500" height="600" fill="url(#g2)"/>
<rect width="1500" height="600" fill="url(#g3)"/>
</g>
<rect width="1500" height="600" fill="url(#grid)"/>
<rect width="1500" height="600" fill="url(#vig)"/>
<g transform="translate(946,158) scale(0.79)">
<g fill="none" stroke="#FDA4AF" stroke-width="12" stroke-linecap="round" stroke-linejoin="round" opacity="0.32" filter="url(#soft)"><rect x="28" y="92" width="34" height="34" rx="9" fill="#FDA4AF" fill-opacity="0.85" stroke="none"/><rect x="74" y="92" width="34" height="34" rx="9" fill="#FDA4AF" fill-opacity="0.85" stroke="none"/><rect x="120" y="92" width="34" height="34" rx="9" fill="#FDA4AF" fill-opacity="0.85" stroke="none"/><rect x="166" y="92" width="34" height="34" rx="9" stroke-opacity="0.42"/><rect x="212" y="92" width="34" height="34" rx="9" fill="#FDA4AF" fill-opacity="0.85" stroke="none"/><rect x="258" y="92" width="34" height="34" rx="9" fill="#FDA4AF" fill-opacity="0.85" stroke="none"/><rect x="304" y="92" width="34" height="34" rx="9" fill="#FDA4AF" fill-opacity="0.85" stroke="none"/><rect x="28" y="138" width="34" height="34" rx="9" stroke-opacity="0.42"/><rect x="74" y="138" width="34" height="34" rx="9" fill="#FDA4AF" fill-opacity="0.85" stroke="none"/><rect x="120" y="138" width="34" height="34" rx="9" fill="#FDA4AF" fill-opacity="0.85" stroke="none"/><rect x="166" y="138" width="34" height="34" rx="9" fill="#FDA4AF" fill-opacity="0.85" stroke="none"/><rect x="212" y="138" width="34" height="34" rx="9" stroke-opacity="0.42"/><rect x="258" y="138" width="34" height="34" rx="9" fill="#FDA4AF" fill-opacity="0.85" stroke="none"/><rect x="304" y="138" width="34" height="34" rx="9" stroke-opacity="0.42"/><rect x="28" y="184" width="34" height="34" rx="9" fill="#FDA4AF" fill-opacity="0.85" stroke="none"/><rect x="74" y="184" width="34" height="34" rx="9" stroke-opacity="0.42"/><rect x="120" y="184" width="34" height="34" rx="9" fill="#FDA4AF" fill-opacity="0.85" stroke="none"/><rect x="166" y="184" width="34" height="34" rx="9" fill="#FDA4AF" fill-opacity="0.85" stroke="none"/><rect x="212" y="184" width="34" height="34" rx="9" fill="#FDA4AF" fill-opacity="0.85" stroke="none"/><rect x="258" y="184" width="34" height="34" rx="9" stroke-opacity="0.42"/><rect x="304" y="184" width="34" height="34" rx="9" fill="#FDA4AF" fill-opacity="0.85" stroke="none"/><rect x="28" y="230" width="34" height="34" rx="9" fill="#FDA4AF" fill-opacity="0.85" stroke="none"/><rect x="74" y="230" width="34" height="34" rx="9" fill="#FDA4AF" fill-opacity="0.85" stroke="none"/><rect x="120" y="230" width="34" height="34" rx="9" stroke-opacity="0.42"/><rect x="166" y="230" width="34" height="34" rx="9" fill="#FDA4AF" fill-opacity="0.85" stroke="none"/><rect x="212" y="230" width="34" height="34" rx="9" fill="#FDA4AF" fill-opacity="0.85" stroke="none"/><rect x="258" y="230" width="34" height="34" rx="9" fill="#FDA4AF" fill-opacity="0.85" stroke="none"/><rect x="304" y="230" width="34" height="34" rx="9" stroke-opacity="0.42"/><rect x="28" y="276" width="34" height="34" rx="9" fill="#FDA4AF" fill-opacity="0.85" stroke="none"/><rect x="74" y="276" width="34" height="34" rx="9" fill="#FDA4AF" fill-opacity="0.85" stroke="none"/><rect x="120" y="276" width="34" height="34" rx="9" fill="#FDA4AF" fill-opacity="0.85" stroke="none"/><rect x="166" y="276" width="34" height="34" rx="9" stroke-opacity="0.42"/><rect x="212" y="276" width="34" height="34" rx="9" fill="#FDA4AF" fill-opacity="0.85" stroke="none"/><rect x="258" y="276" width="34" height="34" rx="9" fill="#FDA4AF" fill-opacity="0.85" stroke="none"/><rect x="304" y="276" width="34" height="34" rx="9" fill="#FDA4AF" fill-opacity="0.85" stroke="none"/></g>
<g fill="none" stroke="#ffffff" stroke-opacity="0.72" stroke-width="3.9" stroke-linecap="round" stroke-linejoin="round"><rect x="28" y="92" width="34" height="34" rx="9" fill="#FDA4AF" fill-opacity="0.85" stroke="none"/><rect x="74" y="92" width="34" height="34" rx="9" fill="#FDA4AF" fill-opacity="0.85" stroke="none"/><rect x="120" y="92" width="34" height="34" rx="9" fill="#FDA4AF" fill-opacity="0.85" stroke="none"/><rect x="166" y="92" width="34" height="34" rx="9" stroke-opacity="0.42"/><rect x="212" y="92" width="34" height="34" rx="9" fill="#FDA4AF" fill-opacity="0.85" stroke="none"/><rect x="258" y="92" width="34" height="34" rx="9" fill="#FDA4AF" fill-opacity="0.85" stroke="none"/><rect x="304" y="92" width="34" height="34" rx="9" fill="#FDA4AF" fill-opacity="0.85" stroke="none"/><rect x="28" y="138" width="34" height="34" rx="9" stroke-opacity="0.42"/><rect x="74" y="138" width="34" height="34" rx="9" fill="#FDA4AF" fill-opacity="0.85" stroke="none"/><rect x="120" y="138" width="34" height="34" rx="9" fill="#FDA4AF" fill-opacity="0.85" stroke="none"/><rect x="166" y="138" width="34" height="34" rx="9" fill="#FDA4AF" fill-opacity="0.85" stroke="none"/><rect x="212" y="138" width="34" height="34" rx="9" stroke-opacity="0.42"/><rect x="258" y="138" width="34" height="34" rx="9" fill="#FDA4AF" fill-opacity="0.85" stroke="none"/><rect x="304" y="138" width="34" height="34" rx="9" stroke-opacity="0.42"/><rect x="28" y="184" width="34" height="34" rx="9" fill="#FDA4AF" fill-opacity="0.85" stroke="none"/><rect x="74" y="184" width="34" height="34" rx="9" stroke-opacity="0.42"/><rect x="120" y="184" width="34" height="34" rx="9" fill="#FDA4AF" fill-opacity="0.85" stroke="none"/><rect x="166" y="184" width="34" height="34" rx="9" fill="#FDA4AF" fill-opacity="0.85" stroke="none"/><rect x="212" y="184" width="34" height="34" rx="9" fill="#FDA4AF" fill-opacity="0.85" stroke="none"/><rect x="258" y="184" width="34" height="34" rx="9" stroke-opacity="0.42"/><rect x="304" y="184" width="34" height="34" rx="9" fill="#FDA4AF" fill-opacity="0.85" stroke="none"/><rect x="28" y="230" width="34" height="34" rx="9" fill="#FDA4AF" fill-opacity="0.85" stroke="none"/><rect x="74" y="230" width="34" height="34" rx="9" fill="#FDA4AF" fill-opacity="0.85" stroke="none"/><rect x="120" y="230" width="34" height="34" rx="9" stroke-opacity="0.42"/><rect x="166" y="230" width="34" height="34" rx="9" fill="#FDA4AF" fill-opacity="0.85" stroke="none"/><rect x="212" y="230" width="34" height="34" rx="9" fill="#FDA4AF" fill-opacity="0.85" stroke="none"/><rect x="258" y="230" width="34" height="34" rx="9" fill="#FDA4AF" fill-opacity="0.85" stroke="none"/><rect x="304" y="230" width="34" height="34" rx="9" stroke-opacity="0.42"/><rect x="28" y="276" width="34" height="34" rx="9" fill="#FDA4AF" fill-opacity="0.85" stroke="none"/><rect x="74" y="276" width="34" height="34" rx="9" fill="#FDA4AF" fill-opacity="0.85" stroke="none"/><rect x="120" y="276" width="34" height="34" rx="9" fill="#FDA4AF" fill-opacity="0.85" stroke="none"/><rect x="166" y="276" width="34" height="34" rx="9" stroke-opacity="0.42"/><rect x="212" y="276" width="34" height="34" rx="9" fill="#FDA4AF" fill-opacity="0.85" stroke="none"/><rect x="258" y="276" width="34" height="34" rx="9" fill="#FDA4AF" fill-opacity="0.85" stroke="none"/><rect x="304" y="276" width="34" height="34" rx="9" fill="#FDA4AF" fill-opacity="0.85" stroke="none"/></g>
</g>
<rect width="1500" height="600" filter="url(#grain)" opacity="0.07"/>
</svg>