<svg xmlns="http://www.w3.org/2000/svg" width="1500" height="600" viewBox="0 0 1500 600" preserveAspectRatio="xMidYMid slice">
<defs>
<radialGradient id="g0" cx="22%" cy="30%" r="56%"><stop offset="0%" stop-color="#EC4899" stop-opacity="1.0"/><stop offset="68%" stop-color="#EC4899" stop-opacity="0"/></radialGradient>
<radialGradient id="g1" cx="72%" cy="28%" r="50%"><stop offset="0%" stop-color="#F43F5E" stop-opacity="1.0"/><stop offset="68%" stop-color="#F43F5E" stop-opacity="0"/></radialGradient>
<radialGradient id="g2" cx="30%" cy="96%" r="38%"><stop offset="0%" stop-color="#F472B6" stop-opacity="0.5"/><stop offset="68%" stop-color="#F472B6" stop-opacity="0"/></radialGradient>
<radialGradient id="g3" cx="94%" cy="82%" r="36%"><stop offset="0%" stop-color="#BE185D" stop-opacity="0.65"/><stop offset="68%" stop-color="#BE185D" stop-opacity="0"/></radialGradient>
<radialGradient id="vig" cx="50%" cy="45%" r="78%">
<stop offset="40%" stop-color="#000" stop-opacity="0"/>
<stop offset="100%" stop-color="#000" stop-opacity="0.38"/>
</radialGradient>
<pattern id="grid" width="60" height="60" patternUnits="userSpaceOnUse">
<path d="M60 0H0V60" fill="none" stroke="#fff" stroke-opacity="0.038" stroke-width="1"/>
</pattern>
<filter id="grain" x="0" y="0" width="100%" height="100%">
<feTurbulence type="fractalNoise" baseFrequency="0.62" numOctaves="2"/>
<feColorMatrix type="saturate" values="0"/>
</filter>
<filter id="soft" x="-60%" y="-60%" width="220%" height="220%">
<feGaussianBlur stdDeviation="14"/>
</filter>
</defs>
<rect width="1500" height="600" fill="#0B1226"/>
<g style="mix-blend-mode:screen">
<rect width="1500" height="600" fill="url(#g0)"/>
<rect width="1500" height="600" fill="url(#g1)"/>
<rect width="1500" height="600" fill="url(#g2)"/>
<rect width="1500" height="600" fill="url(#g3)"/>
</g>
<rect width="1500" height="600" fill="url(#grid)"/>
<rect width="1500" height="600" fill="url(#vig)"/>
<g transform="translate(946,158) scale(0.79)">
<g fill="none" stroke="#F9A8D4" stroke-width="12" stroke-linecap="round" stroke-linejoin="round" opacity="0.32" filter="url(#soft)"><circle cx="180" cy="158" r="108"/><circle cx="180" cy="158" r="72" stroke-opacity="0.5"/><rect x="30" y="292" width="38" height="46" rx="9" stroke-opacity="0.6"/><rect x="76" y="292" width="38" height="46" rx="9" stroke-opacity="0.6"/><rect x="122" y="292" width="38" height="46" rx="9" fill="#F9A8D4" fill-opacity="0.8" stroke="none"/><rect x="168" y="292" width="38" height="46" rx="9" stroke-opacity="0.6"/><rect x="214" y="292" width="38" height="46" rx="9" stroke-opacity="0.6"/><rect x="260" y="292" width="38" height="46" rx="9" stroke-opacity="0.6"/><rect x="306" y="292" width="38" height="46" rx="9" stroke-opacity="0.6"/></g>
<g fill="none" stroke="#ffffff" stroke-opacity="0.72" stroke-width="3.9" stroke-linecap="round" stroke-linejoin="round"><circle cx="180" cy="158" r="108"/><circle cx="180" cy="158" r="72" stroke-opacity="0.5"/><rect x="30" y="292" width="38" height="46" rx="9" stroke-opacity="0.6"/><rect x="76" y="292" width="38" height="46" rx="9" stroke-opacity="0.6"/><rect x="122" y="292" width="38" height="46" rx="9" fill="#F9A8D4" fill-opacity="0.8" stroke="none"/><rect x="168" y="292" width="38" height="46" rx="9" stroke-opacity="0.6"/><rect x="214" y="292" width="38" height="46" rx="9" stroke-opacity="0.6"/><rect x="260" y="292" width="38" height="46" rx="9" stroke-opacity="0.6"/><rect x="306" y="292" width="38" height="46" rx="9" stroke-opacity="0.6"/></g>
</g>
<rect width="1500" height="600" filter="url(#grain)" opacity="0.07"/>
</svg>