<svg xmlns="http://www.w3.org/2000/svg" width="1500" height="600" viewBox="0 0 1500 600" preserveAspectRatio="xMidYMid slice">
<defs>
<radialGradient id="g0" cx="24%" cy="30%" r="58%"><stop offset="0%" stop-color="#0EA5E9" stop-opacity="1.0"/><stop offset="68%" stop-color="#0EA5E9" stop-opacity="0"/></radialGradient>
<radialGradient id="g1" cx="74%" cy="32%" r="52%"><stop offset="0%" stop-color="#6366F1" stop-opacity="1.0"/><stop offset="68%" stop-color="#6366F1" stop-opacity="0"/></radialGradient>
<radialGradient id="g2" cx="30%" cy="96%" r="38%"><stop offset="0%" stop-color="#38BDF8" stop-opacity="0.5"/><stop offset="68%" stop-color="#38BDF8" stop-opacity="0"/></radialGradient>
<radialGradient id="g3" cx="94%" cy="82%" r="40%"><stop offset="0%" stop-color="#4F46E5" stop-opacity="0.65"/><stop offset="68%" stop-color="#4F46E5" stop-opacity="0"/></radialGradient>
<radialGradient id="vig" cx="50%" cy="45%" r="78%">
<stop offset="40%" stop-color="#000" stop-opacity="0"/>
<stop offset="100%" stop-color="#000" stop-opacity="0.38"/>
</radialGradient>
<pattern id="grid" width="60" height="60" patternUnits="userSpaceOnUse">
<path d="M60 0H0V60" fill="none" stroke="#fff" stroke-opacity="0.038" stroke-width="1"/>
</pattern>
<filter id="grain" x="0" y="0" width="100%" height="100%">
<feTurbulence type="fractalNoise" baseFrequency="0.62" numOctaves="2"/>
<feColorMatrix type="saturate" values="0"/>
</filter>
<filter id="soft" x="-60%" y="-60%" width="220%" height="220%">
<feGaussianBlur stdDeviation="14"/>
</filter>
</defs>
<rect width="1500" height="600" fill="#0B1226"/>
<g style="mix-blend-mode:screen">
<rect width="1500" height="600" fill="url(#g0)"/>
<rect width="1500" height="600" fill="url(#g1)"/>
<rect width="1500" height="600" fill="url(#g2)"/>
<rect width="1500" height="600" fill="url(#g3)"/>
</g>
<rect width="1500" height="600" fill="url(#grid)"/>
<rect width="1500" height="600" fill="url(#vig)"/>
<g transform="translate(946,158) scale(0.79)">
<g fill="none" stroke="#7DD3FC" stroke-width="12" stroke-linecap="round" stroke-linejoin="round" opacity="0.32" filter="url(#soft)"><rect x="28" y="66" width="308" height="266" rx="14"/><path d="M28 116 H336" stroke-opacity="0.55"/><path d="M105 66 V332 M182 66 V332 M259 66 V332" stroke-opacity="0.4"/><rect x="38" y="132" width="57" height="60" rx="9" fill="#7DD3FC" fill-opacity="0.8" stroke="none"/><rect x="192" y="150" width="57" height="78" rx="9" fill="#fff" fill-opacity="0.5" stroke="none"/><rect x="115" y="238" width="57" height="52" rx="9" fill="#fff" fill-opacity="0.34" stroke="none"/><rect x="269" y="200" width="57" height="66" rx="9" fill="#fff" fill-opacity="0.42" stroke="none"/></g>
<g fill="none" stroke="#ffffff" stroke-opacity="0.72" stroke-width="3.9" stroke-linecap="round" stroke-linejoin="round"><rect x="28" y="66" width="308" height="266" rx="14"/><path d="M28 116 H336" stroke-opacity="0.55"/><path d="M105 66 V332 M182 66 V332 M259 66 V332" stroke-opacity="0.4"/><rect x="38" y="132" width="57" height="60" rx="9" fill="#7DD3FC" fill-opacity="0.8" stroke="none"/><rect x="192" y="150" width="57" height="78" rx="9" fill="#fff" fill-opacity="0.5" stroke="none"/><rect x="115" y="238" width="57" height="52" rx="9" fill="#fff" fill-opacity="0.34" stroke="none"/><rect x="269" y="200" width="57" height="66" rx="9" fill="#fff" fill-opacity="0.42" stroke="none"/></g>
</g>
<rect width="1500" height="600" filter="url(#grain)" opacity="0.07"/>
</svg>